<svg width="2272" height="2060" viewBox="0 0 2272 2060" fill="none" xmlns="http://www.w3.org/2000/svg">
<g clip-path="url(#clip0_613_76)">
<ellipse cx="1051.28" cy="1132.26" rx="740.562" ry="743.087" fill="white"/>
<path fill-rule="evenodd" clip-rule="evenodd" d="M1885.23 1895.21L1671.09 1681.08C1643.7 1653.68 1645.05 1607.92 1674.1 1578.87C1703.16 1549.81 1748.92 1548.46 1776.31 1575.86L1990.45 1789.99L1885.23 1895.21Z" fill="white"/>
<path fill-rule="evenodd" clip-rule="evenodd" d="M1992.27 1791.82L1776.95 2007.13C1749.2 2034.88 1703.64 2034.31 1675.19 2005.86C1646.74 1977.41 1646.17 1931.85 1673.92 1904.1L1889.24 1688.79L1992.27 1791.82Z" fill="white"/>
<path d="M297.695 1792.67C297.695 1754.01 329.035 1722.67 367.695 1722.67H1725.79C1747.88 1722.67 1765.79 1740.58 1765.79 1762.67V1834.99C1765.79 1857.08 1747.88 1874.99 1725.79 1874.99H367.695C329.035 1874.99 297.695 1843.65 297.695 1804.99V1792.67Z" fill="white"/>
<mask id="mask0_613_76" style="mask-type:alpha" maskUnits="userSpaceOnUse" x="378" y="442" width="1365" height="1389">
<path d="M408.391 1136.39C408.391 769.345 700.722 472.682 1060.25 472.682C1419.77 472.682 1712.1 769.345 1712.1 1136.39C1712.1 1503.44 1419.77 1800.1 1060.25 1800.1C700.721 1800.1 408.391 1503.44 408.391 1136.39Z" stroke="#0C1A33" stroke-width="60"/>
</mask>
<g mask="url(#mask0_613_76)">
<path d="M1912.88 1898.75L1075.53 1898.75L1075.53 291.944L1912.88 291.944L1912.88 1898.75Z" fill="#144E63"/>
</g>
<path fill-rule="evenodd" clip-rule="evenodd" d="M1815.81 1763.75L1702.68 1650.63C1690.94 1638.89 1690.94 1619.85 1702.68 1608.11C1714.42 1596.37 1733.46 1596.37 1745.2 1608.11L1888.47 1751.38L1930.99 1793.9L1888.47 1836.42L1746.78 1978.11C1735.04 1989.85 1716 1989.85 1704.26 1978.11C1692.52 1966.37 1692.52 1947.33 1704.26 1935.59L1809.96 1829.89L1165.53 1829.89V1829.89H372.858C354.592 1829.89 339.784 1815.09 339.784 1796.83C339.784 1778.56 354.592 1763.76 372.858 1763.76H874.643C874.707 1763.75 874.771 1763.75 874.835 1763.75L874.911 1763.75L1815.81 1763.75Z" fill="#144E63"/>
<mask id="mask1_613_76" style="mask-type:alpha" maskUnits="userSpaceOnUse" x="330" y="1120" width="550" height="601">
<rect x="330.767" y="1120.4" width="549.158" height="600.266" fill="#D9D9D9"/>
</mask>
<g mask="url(#mask1_613_76)">
<path d="M1696.54 1149.78C1696.54 1511.17 1404.6 1803.96 1044.69 1803.96C684.774 1803.96 392.832 1511.17 392.832 1149.78C392.832 788.387 684.774 495.597 1044.69 495.597C1404.6 495.597 1696.54 788.387 1696.54 1149.78Z" stroke="#144E63" stroke-width="60"/>
</g>
<circle cx="393.398" cy="1120.4" r="30.0634" fill="#144E63"/>
<rect x="754.277" y="1272.28" width="38.0803" height="66.1395" transform="rotate(-2.2393 754.277 1272.28)" fill="white"/>
<mask id="mask2_613_76" style="mask-type:alpha" maskUnits="userSpaceOnUse" x="428" y="513" width="1246" height="1246">
<circle cx="1051.22" cy="1136.37" r="622.312" transform="rotate(105.048 1051.22 1136.37)" fill="#09B3AD"/>
<circle cx="1051.22" cy="1136.37" r="622.312" transform="rotate(105.048 1051.22 1136.37)" fill="black" fill-opacity="0.2"/>
</mask>
<g mask="url(#mask2_613_76)">
<circle cx="1050.22" cy="1159.41" r="622.312" transform="rotate(105.048 1050.22 1159.41)" fill="#08B2E3"/>
<path d="M719.889 1317.84C675.051 1214.25 517.57 1198.39 444.433 1203.4C391.279 1245.56 303.037 1356.02 375.299 1460.55C481.63 1633.16 613.511 1620.63 666.16 1592.79C702.752 1544.3 764.726 1421.42 719.889 1317.84Z" fill="#09B3AD"/>
<path d="M719.889 1317.84C675.051 1214.25 517.57 1198.39 444.433 1203.4C391.279 1245.56 303.037 1356.02 375.299 1460.55C481.63 1633.16 613.511 1620.63 666.16 1592.79C702.752 1544.3 764.726 1421.42 719.889 1317.84Z" fill="black" fill-opacity="0.2"/>
<path fill-rule="evenodd" clip-rule="evenodd" d="M697.097 1468.28C710.548 1422.03 713.543 1372.55 694.597 1328.78C676.885 1287.86 635.641 1261.57 584.83 1246.28C538.624 1232.38 489.099 1229.07 454.991 1230.43C431.995 1250.24 404.045 1282.35 388.168 1319.43C371.198 1359.08 368.556 1402.34 397.967 1444.88L398.38 1445.48L398.761 1446.1C448.967 1527.6 503.285 1562.56 548.367 1575.32C590.427 1587.23 626.622 1580.49 647.95 1571.01C664.042 1548.34 684.67 1511.01 697.097 1468.28ZM750.021 1483.67C734.522 1536.96 708.239 1582.77 688.156 1609.39L684.463 1614.28L679.042 1617.15C646.661 1634.27 593.24 1645.31 533.351 1628.35C472.882 1611.23 408.247 1566.32 352.208 1475.61C309.813 1413.81 315.2 1349.83 337.5 1297.74C359.42 1246.54 398.153 1204.93 427.306 1181.81L434.01 1176.49L442.547 1175.91C481.687 1173.22 542.772 1176.07 600.715 1193.5C658.138 1210.79 718.053 1244.22 745.178 1306.89C771.07 1366.7 765.496 1430.46 750.021 1483.67Z" fill="white"/>
<path d="M1495.91 893.981C1546.85 858.503 1539.31 796.737 1529.17 770.289C1577.12 783.18 1687.91 945.598 1710.29 1046.93C1738.32 1330.93 1627.05 1518.31 1567.91 1576.5C1508.94 1555.26 1441.67 1521.95 1417.06 1457.11C1392.45 1392.26 1435.97 1369.58 1440.23 1257.5C1444.49 1145.42 1148.12 1153.09 1167.34 1009.45C1186.55 865.804 1432.25 938.328 1495.91 893.981Z" fill="#09B3AD"/>
<path d="M1495.91 893.981C1546.85 858.503 1539.31 796.737 1529.17 770.289C1577.12 783.18 1687.91 945.598 1710.29 1046.93C1738.32 1330.93 1627.05 1518.31 1567.91 1576.5C1508.94 1555.26 1441.67 1521.95 1417.06 1457.11C1392.45 1392.26 1435.97 1369.58 1440.23 1257.5C1444.49 1145.42 1148.12 1153.09 1167.34 1009.45C1186.55 865.804 1432.25 938.328 1495.91 893.981Z" fill="black" fill-opacity="0.2"/>
<path fill-rule="evenodd" clip-rule="evenodd" d="M1737.71 1044.22C1766.53 1336.21 1652.54 1531.9 1587.24 1596.14L1574.88 1608.3L1558.57 1602.43C1499.47 1581.13 1420.7 1544.38 1391.29 1466.89C1383.88 1447.37 1381.27 1429.98 1382.18 1412.87C1383.05 1396.34 1387.18 1381.22 1391.42 1367.1C1392.25 1364.32 1393.11 1361.52 1393.98 1358.68C1401.91 1332.75 1410.91 1303.35 1412.69 1256.45C1413.19 1243.23 1405.88 1230.33 1381.78 1214.84C1360.97 1201.45 1333.84 1190.11 1303.2 1177.3C1298.04 1175.15 1292.79 1172.95 1287.45 1170.7C1252.27 1155.84 1213.33 1138.4 1184.64 1114.05C1154.48 1088.46 1133.66 1053.35 1140.02 1005.79C1146.13 960.119 1171.21 930.465 1204.98 912.664C1236.94 895.813 1276.18 889.742 1312.9 886.996C1331.58 885.599 1350.47 885.021 1368.36 884.579C1371.49 884.501 1374.58 884.428 1377.64 884.356C1392.27 884.01 1406.03 883.685 1418.98 883.011C1434.65 882.195 1448.02 880.912 1458.96 878.749C1470.18 876.529 1476.71 873.773 1480.16 871.368C1498.14 858.846 1505.77 842.093 1508.15 824.964C1510.63 807.041 1507.09 789.689 1503.44 780.152L1484.07 729.627L1536.32 743.675C1547.38 746.648 1557.71 753.063 1566.56 759.848C1575.78 766.912 1585.25 775.834 1594.64 785.842C1613.45 805.88 1633.43 831.856 1652.27 860.185C1689.56 916.274 1724.95 985.51 1737.2 1040.98L1737.55 1042.58L1737.71 1044.22ZM1683.03 1051.31C1672.55 1005.6 1641.65 943.77 1606.37 890.701C1591.67 868.592 1576.65 848.683 1562.72 832.704C1558.63 861.893 1544.56 893.683 1511.66 916.594C1499.2 925.276 1484.13 929.954 1469.65 932.817C1454.89 935.738 1438.47 937.187 1421.85 938.052C1408.04 938.771 1393.33 939.118 1378.68 939.463C1375.69 939.534 1372.7 939.605 1369.72 939.678C1351.92 940.118 1334.22 940.672 1317.01 941.959C1281.94 944.581 1252.18 950.083 1230.68 961.419C1210.98 971.805 1198.15 986.95 1194.65 1013.1C1191.41 1037.36 1200.43 1055.16 1220.3 1072.03C1241.64 1090.14 1272.92 1104.73 1308.89 1119.92C1313.73 1121.96 1318.67 1124.02 1323.67 1126.11C1353.89 1138.71 1386.31 1152.22 1411.59 1168.48C1441.26 1187.56 1469.39 1215.73 1467.77 1258.54C1465.7 1312.8 1454.86 1348.15 1446.71 1374.72C1445.84 1377.56 1445.01 1380.29 1444.21 1382.93C1440.11 1396.6 1437.71 1406.31 1437.22 1415.78C1436.75 1424.66 1437.92 1434.42 1442.82 1447.33C1460.72 1494.5 1507.99 1523.41 1560.35 1544.19C1615.85 1479.56 1707.82 1307.26 1683.03 1051.31Z" fill="white"/>
<path fill-rule="evenodd" clip-rule="evenodd" d="M488.956 985.204C405.471 1295.73 589.527 1615.14 900.056 1698.63C1210.59 1782.11 1530 1598.06 1613.48 1287.53C1696.97 976.998 1512.91 657.587 1202.38 574.103C891.851 490.618 572.44 674.675 488.956 985.204ZM450.246 974.797C361.013 1306.7 557.741 1648.11 889.649 1737.34C1221.56 1826.57 1562.96 1629.84 1652.19 1297.93C1741.42 966.027 1544.7 624.625 1212.79 535.393C880.879 446.161 539.478 642.889 450.246 974.797Z" fill="white"/>
</g>
<circle cx="1082.35" cy="473.033" r="30.0634" fill="#144E63"/>
<mask id="mask3_613_76" style="mask-type:alpha" maskUnits="userSpaceOnUse" x="320" y="346" width="1246" height="1246">
<circle cx="942.992" cy="969.014" r="622.312" transform="rotate(105.048 942.992 969.014)" fill="#08B2E3"/>
</mask>
<g mask="url(#mask3_613_76)">
<circle opacity="0.2" cx="1050.22" cy="1170.44" r="622.312" transform="rotate(105.048 1050.22 1170.44)" fill="white"/>
</g>
<path d="M1193.21 283.397L1196.75 267.606L1236.38 246.021C1239.37 244.33 1241.95 242.749 1244.11 241.276C1246.28 239.775 1248.03 238.18 1249.37 236.493C1250.72 234.777 1251.64 232.795 1252.15 230.547C1252.71 228.034 1252.64 225.768 1251.95 223.748C1251.26 221.699 1250.06 219.972 1248.36 218.565C1246.65 217.159 1244.56 216.177 1242.08 215.621C1239.56 215.058 1237.24 215.082 1235.12 215.693C1233 216.274 1231.2 217.407 1229.7 219.09C1228.24 220.78 1227.19 223.001 1226.58 225.751L1205.78 221.09C1207.16 214.91 1209.75 209.884 1213.53 206.012C1217.32 202.14 1222 199.555 1227.57 198.256C1233.17 196.935 1239.32 197.023 1246 198.52C1252.89 200.063 1258.62 202.558 1263.19 206.004C1267.76 209.45 1270.97 213.554 1272.82 218.317C1274.71 223.056 1275.05 228.146 1273.83 233.587C1273.05 237.047 1271.59 240.321 1269.44 243.411C1267.28 246.5 1263.94 249.695 1259.42 252.997C1254.92 256.306 1248.73 260.09 1240.85 264.349L1227.74 271.939L1227.61 272.516L1264.42 280.763L1260.46 298.461L1193.21 283.397Z" fill="#144E63"/>
<path d="M1312.45 317.14C1304.75 314.562 1298.72 310.514 1294.37 304.999C1290.02 299.454 1287.49 292.743 1286.78 284.865C1286.07 276.958 1287.35 268.168 1290.62 258.494C1293.89 248.82 1298.15 241.106 1303.4 235.354C1308.69 229.583 1314.7 225.859 1321.43 224.181C1328.19 222.485 1335.43 222.926 1343.13 225.504C1350.83 228.083 1356.87 232.087 1361.25 237.516C1365.67 242.927 1368.26 249.528 1369 257.32C1369.75 265.111 1368.49 273.83 1365.23 283.475C1361.98 293.188 1357.69 300.987 1352.36 306.873C1347.04 312.76 1340.98 316.594 1334.18 318.377C1327.42 320.141 1320.18 319.728 1312.45 317.14ZM1318.29 299.684C1322.89 301.223 1327.4 300.127 1331.81 296.396C1336.23 292.636 1340.06 285.88 1343.29 276.13C1345.43 269.75 1346.54 264.275 1346.63 259.705C1346.74 255.105 1345.98 251.4 1344.36 248.59C1342.75 245.78 1340.4 243.861 1337.33 242.831C1332.76 241.302 1328.29 242.378 1323.93 246.062C1319.57 249.717 1315.78 256.309 1312.56 265.84C1310.37 272.295 1309.19 277.861 1309.03 282.537C1308.9 287.223 1309.65 291.004 1311.27 293.881C1312.91 296.73 1315.25 298.664 1318.29 299.684Z" fill="#144E63"/>
<path d="M1366.07 333.872L1372.75 319.135L1415.95 306.087C1419.22 305.041 1422.06 304.018 1424.48 303.018C1426.91 301.99 1428.95 300.787 1430.61 299.409C1432.28 298.003 1433.59 296.252 1434.54 294.154C1435.6 291.809 1436 289.576 1435.73 287.457C1435.47 285.311 1434.65 283.375 1433.27 281.651C1431.89 279.927 1430.04 278.539 1427.73 277.488C1425.38 276.424 1423.1 275.974 1420.9 276.139C1418.71 276.276 1416.71 277.016 1414.9 278.36C1413.12 279.715 1411.65 281.677 1410.49 284.243L1391.07 275.438C1393.69 269.67 1397.24 265.277 1401.74 262.259C1406.24 259.24 1411.35 257.664 1417.06 257.529C1422.82 257.378 1428.82 258.718 1435.06 261.546C1441.49 264.463 1446.59 268.074 1450.36 272.379C1454.13 276.685 1456.43 281.357 1457.27 286.398C1458.16 291.423 1457.45 296.474 1455.14 301.552C1453.68 304.781 1451.58 307.688 1448.84 310.273C1446.11 312.859 1442.18 315.306 1437.08 317.615C1432 319.936 1425.17 322.379 1416.58 324.941L1402.2 329.697L1401.96 330.235L1436.31 345.818L1428.82 362.335L1366.07 333.872Z" fill="#144E63"/>
<path d="M1450.52 356.094L1459.29 340.898L1522.36 307.916L1535.87 315.71L1523.96 336.339L1516.12 331.817L1479.12 351.289L1478.75 351.919L1526.59 379.526L1517.73 394.879L1450.52 356.094ZM1481.73 391.95L1492.14 373.92L1496.37 367.494L1528.66 311.552L1546.89 322.072L1500.35 402.698L1481.73 391.95Z" fill="#144E63"/>
<path d="M1588.13 371.086L1599.35 356.661L1661.46 404.961L1650.24 419.386L1627.96 402.058L1582.03 461.12L1564.52 447.503L1610.45 388.441L1588.13 371.086Z" fill="#144E63"/>
<path d="M1630.16 502.15L1612.82 485.3L1700.22 440.417L1721.7 461.29L1679.36 549.945L1662.02 533.095L1694.86 467.914L1694.34 467.407L1630.16 502.15ZM1653.38 473.624L1689.63 508.845L1677.72 521.103L1641.47 485.882L1653.38 473.624Z" fill="#144E63"/>
<path d="M1770.67 557.792C1773.04 555.434 1774.18 552.743 1774.08 549.721C1774.02 546.702 1772.59 543.499 1769.79 540.113C1767.94 537.871 1766.1 536.245 1764.28 535.233C1762.46 534.221 1760.73 533.766 1759.08 533.869C1757.46 533.952 1755.98 534.522 1754.66 535.581C1753.54 536.422 1752.77 537.414 1752.34 538.557C1751.93 539.724 1751.78 541.023 1751.91 542.455C1752.07 543.891 1752.46 545.456 1753.08 547.15C1753.69 548.844 1754.5 550.654 1755.5 552.578L1759.2 559.902C1761.36 564.088 1762.92 568.067 1763.88 571.838C1764.85 575.633 1765.22 579.186 1764.97 582.499C1764.74 585.835 1763.86 588.937 1762.34 591.807C1760.82 594.676 1758.64 597.31 1755.78 599.708C1751.23 603.432 1746.4 605.503 1741.28 605.922C1736.16 606.341 1730.98 605.14 1725.74 602.319C1720.51 599.521 1715.43 595.133 1710.49 589.155C1705.52 583.153 1702.1 577.179 1700.21 571.232C1698.32 565.284 1698.18 559.557 1699.8 554.05C1701.42 548.542 1705 543.436 1710.55 538.732L1724.28 555.335C1722.08 557.387 1720.67 559.599 1720.03 561.971C1719.4 564.343 1719.48 566.815 1720.27 569.387C1721.08 571.982 1722.53 574.552 1724.64 577.097C1726.57 579.432 1728.53 581.157 1730.51 582.27C1732.51 583.406 1734.44 583.955 1736.29 583.915C1738.15 583.876 1739.81 583.269 1741.28 582.095C1742.61 580.952 1743.42 579.575 1743.7 577.966C1744.01 576.338 1743.8 574.382 1743.09 572.098C1742.43 569.818 1741.32 567.119 1739.76 564.001L1735.31 555.057C1731.6 547.667 1729.86 540.872 1730.08 534.673C1730.32 528.454 1733.17 523.107 1738.63 518.631C1743.05 514.938 1747.93 512.914 1753.25 512.558C1758.58 512.201 1763.94 513.376 1769.32 516.081C1774.7 518.786 1779.65 522.859 1784.14 528.301C1788.74 533.858 1791.78 539.463 1793.27 545.114C1794.8 550.769 1794.81 556.129 1793.3 561.194C1791.78 566.26 1788.82 570.66 1784.4 574.395L1770.67 557.792Z" fill="#144E63"/>
<path d="M1744.26 629.366L1821.76 577.795L1834.22 596.527L1801.45 618.334L1802.13 619.356L1851.95 623.168L1866.63 645.23L1813.76 640.772L1789.46 697.293L1774.55 674.89L1792.17 635.32L1777.72 634.122L1756.72 648.098L1744.26 629.366Z" fill="#144E63"/>
<path d="M1887.13 682.735L1805.89 728.201L1794.9 708.567L1876.14 663.101L1887.13 682.735Z" fill="#144E63"/>
<path d="M1932.94 777.157L1848.37 816.058L1840.39 798.714L1873.72 742.606L1873.48 742.069L1824.66 764.521L1815.26 744.08L1899.84 705.179L1907.93 722.77L1874.51 778.469L1874.83 779.171L1923.56 756.757L1932.94 777.157Z" fill="#144E63"/>
<path d="M1933.85 871.534C1935.51 870.449 1936.87 869.205 1937.94 867.801C1939.04 866.388 1939.85 864.83 1940.38 863.126C1940.9 861.423 1941.12 859.599 1941.02 857.653C1940.95 855.698 1940.57 853.655 1939.87 851.524C1938.46 847.234 1936.2 843.86 1933.1 841.403C1930.01 838.974 1926.19 837.562 1921.66 837.168C1917.16 836.764 1912.09 837.488 1906.45 839.341C1900.77 841.203 1896.21 843.611 1892.74 846.566C1889.28 849.521 1887.01 852.898 1885.93 856.697C1884.85 860.497 1885.03 864.613 1886.49 869.047C1887.77 872.963 1889.49 876.066 1891.65 878.356C1893.84 880.666 1896.35 882.139 1899.18 882.775C1902 883.411 1905.01 883.204 1908.21 882.155L1909.04 886.284L1901.97 864.777L1917.57 859.659L1930.08 897.793L1918.38 901.635C1910.46 904.234 1903.13 904.776 1896.38 903.26C1889.64 901.772 1883.8 898.588 1878.84 893.707C1873.9 888.855 1870.18 882.628 1867.69 875.027C1864.92 866.592 1864.31 858.578 1865.87 850.986C1867.43 843.394 1871.01 836.702 1876.6 830.911C1882.22 825.11 1889.7 820.679 1899.03 817.616C1906.28 815.234 1913.07 814.202 1919.4 814.518C1925.75 814.825 1931.51 816.265 1936.7 818.837C1941.89 821.439 1946.33 824.957 1950.02 829.391C1953.71 833.854 1956.53 839.037 1958.47 844.939C1960.15 850.064 1960.98 855.07 1960.96 859.957C1960.95 864.873 1960.16 869.469 1958.6 873.746C1957.04 878.051 1954.77 881.874 1951.79 885.214C1948.8 888.554 1945.19 891.207 1940.96 893.171L1933.85 871.534Z" fill="#144E63"/>
<path d="M1966.2 1001.06C1969.43 1000.2 1971.76 998.425 1973.17 995.751C1974.62 993.101 1974.97 989.612 1974.22 985.282C1973.73 982.416 1972.94 980.092 1971.86 978.31C1970.78 976.528 1969.51 975.273 1968.03 974.544C1966.58 973.811 1965.01 973.574 1963.34 973.833C1961.95 974.011 1960.79 974.489 1959.85 975.267C1958.91 976.075 1958.14 977.131 1957.54 978.435C1956.97 979.763 1956.53 981.316 1956.22 983.091C1955.91 984.866 1955.72 986.838 1955.63 989.006L1955.2 997.198C1955 1001.91 1954.38 1006.14 1953.34 1009.88C1952.3 1013.66 1950.85 1016.93 1948.99 1019.68C1947.13 1022.46 1944.83 1024.72 1942.09 1026.45C1939.34 1028.19 1936.14 1029.39 1932.47 1030.05C1926.67 1031.03 1921.45 1030.42 1916.79 1028.24C1912.14 1026.07 1908.24 1022.45 1905.09 1017.4C1901.95 1012.38 1899.71 1006.04 1898.39 998.398C1897.06 990.724 1897.06 983.837 1898.37 977.736C1899.68 971.635 1902.41 966.597 1906.55 962.621C1910.69 958.645 1916.34 955.992 1923.49 954.663L1927.16 975.893C1924.23 976.584 1921.91 977.801 1920.18 979.545C1918.45 981.29 1917.29 983.474 1916.7 986.098C1916.11 988.752 1916.1 991.706 1916.66 994.961C1917.18 997.947 1918.02 1000.42 1919.19 1002.37C1920.36 1004.35 1921.77 1005.78 1923.39 1006.67C1925.02 1007.55 1926.77 1007.85 1928.62 1007.56C1930.35 1007.23 1931.74 1006.44 1932.78 1005.18C1933.85 1003.92 1934.65 1002.12 1935.17 999.787C1935.72 997.477 1936.1 994.583 1936.29 991.104L1936.88 981.132C1937.32 972.874 1939.18 966.11 1942.45 960.839C1945.75 955.563 1950.89 952.338 1957.85 951.165C1963.52 950.153 1968.75 950.816 1973.55 953.153C1978.36 955.49 1982.42 959.169 1985.75 964.191C1989.08 969.212 1991.34 975.201 1992.55 982.159C1993.78 989.265 1993.63 995.64 1992.12 1001.28C1990.64 1006.95 1987.99 1011.61 1984.16 1015.25C1980.33 1018.9 1975.57 1021.25 1969.87 1022.29L1966.2 1001.06Z" fill="#144E63"/>
<path d="M1907.62 1050.13L2000.47 1043.54L2003.2 1081.9C2003.69 1088.85 2002.75 1094.95 2000.39 1100.19C1998.06 1105.46 1994.58 1109.64 1989.93 1112.74C1985.32 1115.83 1979.83 1117.6 1973.45 1118.05C1967.04 1118.51 1961.34 1117.5 1956.33 1115.03C1951.36 1112.59 1947.37 1108.87 1944.38 1103.89C1941.38 1098.91 1939.63 1092.87 1939.13 1085.76L1937.45 1062.1L1955.13 1060.84L1956.51 1080.34C1956.75 1083.72 1957.54 1086.51 1958.88 1088.69C1960.22 1090.9 1962 1092.53 1964.19 1093.55C1966.42 1094.58 1968.96 1094.99 1971.8 1094.79C1974.67 1094.59 1977.11 1093.82 1979.11 1092.5C1981.14 1091.17 1982.65 1089.31 1983.64 1086.93C1984.62 1084.56 1985 1081.69 1984.76 1078.33L1983.98 1067.27L1909.21 1072.57L1907.62 1050.13Z" fill="#144E63"/>
<path d="M1912.96 1137.66L2006.01 1140.42L2004.87 1178.85C2004.67 1185.82 2003.23 1191.8 2000.57 1196.78C1997.93 1201.79 1994.24 1205.61 1989.5 1208.23C1984.78 1210.85 1979.24 1212.06 1972.88 1211.87C1966.43 1211.68 1960.99 1210.11 1956.56 1207.16C1952.16 1204.21 1948.86 1200.11 1946.65 1194.86C1944.47 1189.61 1943.48 1183.45 1943.69 1176.36L1944.41 1152.05L1962.13 1152.58L1961.54 1172.7C1961.44 1176.1 1961.79 1178.94 1962.6 1181.24C1963.44 1183.57 1964.75 1185.35 1966.54 1186.58C1968.35 1187.82 1970.69 1188.48 1973.57 1188.57C1976.45 1188.65 1978.85 1188.13 1980.76 1187.01C1982.7 1185.88 1984.18 1184.18 1985.18 1181.91C1986.22 1179.63 1986.79 1176.82 1986.89 1173.45L1987.22 1162.37L1912.3 1160.15L1912.96 1137.66ZM1953.94 1191.3L1910.72 1213.21L1911.45 1188.68L1954.65 1167.22L1953.94 1191.3Z" fill="#144E63"/>
<path d="M1999.03 1258.62L1906.44 1248.98L1908.77 1226.6L2001.36 1236.24L1999.03 1258.62Z" fill="#144E63"/>
<path d="M1982.08 1362.19L1890.54 1345.27L1894.01 1326.49L1953.58 1299.83L1953.69 1299.25L1900.86 1289.48L1904.95 1267.36L1996.49 1284.29L1992.97 1303.33L1933.56 1329.6L1933.42 1330.36L1986.16 1340.11L1982.08 1362.19Z" fill="#144E63"/>
<path d="M1961.62 1379.76L1978.87 1385.8L1952.84 1460.05L1935.59 1454.01L1944.93 1427.37L1874.33 1402.62L1881.66 1381.68L1952.27 1406.44L1961.62 1379.76Z" fill="#144E63"/>
<path d="M343.643 2020.04V1926.94H382.461C389.431 1926.94 395.264 1927.93 399.961 1929.9C404.688 1931.87 408.234 1934.63 410.597 1938.17C412.991 1941.72 414.188 1945.82 414.188 1950.49C414.188 1954.04 413.446 1957.2 411.961 1959.99C410.476 1962.75 408.431 1965.04 405.825 1966.85C403.219 1968.67 400.203 1969.94 396.779 1970.67V1971.58C400.537 1971.76 404.006 1972.78 407.188 1974.63C410.4 1976.47 412.976 1979.05 414.915 1982.35C416.855 1985.63 417.825 1989.5 417.825 1993.99C417.825 1998.99 416.552 2003.46 414.006 2007.4C411.461 2011.31 407.779 2014.4 402.961 2016.67C398.143 2018.91 392.294 2020.04 385.415 2020.04H343.643ZM366.143 2001.9H380.052C384.931 2001.9 388.522 2000.97 390.825 1999.13C393.158 1997.28 394.325 1994.7 394.325 1991.4C394.325 1989 393.764 1986.94 392.643 1985.22C391.522 1983.46 389.931 1982.11 387.87 1981.17C385.809 1980.2 383.34 1979.72 380.461 1979.72H366.143V2001.9ZM366.143 1965.22H378.597C381.052 1965.22 383.234 1964.81 385.143 1963.99C387.052 1963.17 388.537 1961.99 389.597 1960.44C390.688 1958.9 391.234 1957.04 391.234 1954.85C391.234 1951.73 390.128 1949.28 387.915 1947.49C385.703 1945.7 382.719 1944.81 378.961 1944.81H366.143V1965.22ZM436.323 2020.04V1926.94H501.232V1945.22H458.823V1964.31H497.914V1982.63H458.823V2001.76H501.232V2020.04H436.323ZM523.003 2020.04V1926.94H561.457C568.427 1926.94 574.442 1928.2 579.503 1930.72C584.594 1933.2 588.518 1936.78 591.275 1941.44C594.033 1946.08 595.412 1951.58 595.412 1957.94C595.412 1964.4 594.003 1969.88 591.185 1974.4C588.366 1978.88 584.366 1982.31 579.185 1984.67C574.003 1987 567.866 1988.17 560.775 1988.17H536.457V1970.44H556.594C559.988 1970.44 562.821 1970 565.094 1969.13C567.397 1968.22 569.139 1966.85 570.321 1965.04C571.503 1963.19 572.094 1960.82 572.094 1957.94C572.094 1955.07 571.503 1952.69 570.321 1950.81C569.139 1948.9 567.397 1947.47 565.094 1946.54C562.791 1945.57 559.957 1945.08 556.594 1945.08H545.503V2020.04H523.003ZM575.412 1977.49L598.594 2020.04H574.048L551.321 1977.49H575.412ZM615.433 2020.04V1926.94H637.933V2001.76H676.66V2020.04H615.433ZM718.488 1926.94V2020.04H695.988V1926.94H718.488ZM819.52 1926.94V2020.04H800.429L763.384 1966.31H762.793V2020.04H740.293V1926.94H759.656L796.293 1980.58H797.065V1926.94H819.52ZM864.03 2007.31L863.62 2012.35C863.257 2016.54 862.514 2020.61 861.393 2024.58C860.302 2028.58 859.136 2032.17 857.893 2035.35C856.651 2038.54 855.666 2041 854.939 2042.76H840.939C841.423 2041 842.075 2038.54 842.893 2035.35C843.742 2032.17 844.53 2028.58 845.257 2024.58C845.984 2020.58 846.393 2016.52 846.484 2012.4L846.575 2007.31H864.03ZM979.174 1957.35C978.659 1955.44 977.901 1953.76 976.901 1952.31C975.901 1950.82 974.674 1949.57 973.219 1948.54C971.765 1947.5 970.098 1946.73 968.219 1946.22C966.34 1945.67 964.28 1945.4 962.037 1945.4C957.522 1945.4 953.613 1946.49 950.31 1948.67C947.037 1950.85 944.507 1954.04 942.719 1958.22C940.931 1962.37 940.037 1967.41 940.037 1973.35C940.037 1979.32 940.901 1984.41 942.628 1988.63C944.355 1992.84 946.855 1996.05 950.128 1998.26C953.401 2000.47 957.371 2001.58 962.037 2001.58C966.159 2001.58 969.643 2000.91 972.492 1999.58C975.371 1998.22 977.552 1996.29 979.037 1993.81C980.522 1991.32 981.265 1988.4 981.265 1985.04L985.446 1985.54H962.81V1969.13H1002.95V1981.44C1002.95 1989.78 1001.17 1996.91 997.628 2002.85C994.113 2008.79 989.265 2013.35 983.083 2016.54C976.931 2019.72 969.855 2021.31 961.855 2021.31C952.977 2021.31 945.174 2019.38 938.446 2015.54C931.719 2011.69 926.477 2006.2 922.719 1999.08C918.962 1991.93 917.083 1983.44 917.083 1973.63C917.083 1965.99 918.219 1959.22 920.492 1953.31C922.765 1947.37 925.931 1942.34 929.992 1938.22C934.083 1934.1 938.81 1930.97 944.174 1928.85C949.568 1926.73 955.371 1925.67 961.583 1925.67C966.977 1925.67 971.992 1926.44 976.628 1927.99C981.295 1929.54 985.416 1931.72 988.992 1934.54C992.598 1937.35 995.522 1940.7 997.765 1944.58C1000.01 1948.46 1001.4 1952.72 1001.95 1957.35H979.174ZM1023.89 2020.04V1926.94H1088.8V1945.22H1046.39V1964.31H1085.48V1982.63H1046.39V2001.76H1088.8V2020.04H1023.89ZM1110.57 2020.04V1926.94H1149.02C1155.99 1926.94 1162.01 1928.2 1167.07 1930.72C1172.16 1933.2 1176.08 1936.78 1178.84 1941.44C1181.6 1946.08 1182.98 1951.58 1182.98 1957.94C1182.98 1964.4 1181.57 1969.88 1178.75 1974.4C1175.93 1978.88 1171.93 1982.31 1166.75 1984.67C1161.57 1987 1155.43 1988.17 1148.34 1988.17H1124.02V1970.44H1144.16C1147.55 1970.44 1150.39 1970 1152.66 1969.13C1154.96 1968.22 1156.7 1966.85 1157.89 1965.04C1159.07 1963.19 1159.66 1960.82 1159.66 1957.94C1159.66 1955.07 1159.07 1952.69 1157.89 1950.81C1156.7 1948.9 1154.96 1947.47 1152.66 1946.54C1150.36 1945.57 1147.52 1945.08 1144.16 1945.08H1133.07V2020.04H1110.57ZM1162.98 1977.49L1186.16 2020.04H1161.61L1138.89 1977.49H1162.98ZM1203 1926.94H1230.86L1254.5 1984.58H1255.59L1279.22 1926.94H1307.09V2020.04H1285.18V1962.85H1284.41L1262.04 2019.44H1248.04L1225.68 1962.54H1224.91V2020.04H1203V1926.94ZM1348.94 2020.04H1324.76L1356.17 1926.94H1386.12L1417.53 2020.04H1393.35L1371.48 1950.4H1370.76L1348.94 2020.04ZM1345.71 1983.4H1396.26V2000.49H1345.71V1983.4ZM1514.46 1926.94V2020.04H1495.37L1458.32 1966.31H1457.73V2020.04H1435.23V1926.94H1454.6L1491.23 1980.58H1492.01V1926.94H1514.46ZM1531.65 1926.94H1556.79L1576.47 1965.9H1577.29L1596.97 1926.94H1622.11L1588.06 1988.94V2020.04H1565.7V1988.94L1531.65 1926.94Z" fill="#144E63"/>
<g clip-path="url(#clip1_613_76)">
<path d="M918.476 843.733C918.599 842.878 918.681 842.016 918.681 841.161C918.681 830.987 911.079 822.196 900.781 820.89C889.58 819.501 879.363 827.43 877.934 838.663C874.458 866.248 862.032 891.952 843.03 911.039C824.967 929.1 801.757 940.95 775.885 945.246C764.759 947.087 757.163 957.712 759.087 968.747C760.969 979.824 771.458 987.424 782.577 985.543C816.871 979.864 847.779 964.088 871.926 939.938C897.346 914.433 913.857 880.266 918.475 843.732L918.476 843.733Z" fill="white" fill-opacity="0.7"/>
<path d="M968.268 847.758C964.916 894.062 944.724 937.949 911.304 971.337C877.495 1005.17 834.751 1024.83 787.736 1028.27C776.487 1029.08 768.16 1038.93 768.852 1050.13C769.659 1061.33 779.437 1069.79 790.639 1069.01C846.836 1064.89 899.96 1040.49 940.187 1000.19C980.49 959.856 1004.93 906.732 1008.97 850.625C1009.06 850.132 1009.06 849.647 1009.06 849.154C1009.06 838.529 1000.84 829.58 990.048 828.801C978.813 828.021 969.083 836.518 968.268 847.758Z" fill="white" fill-opacity="0.4"/>
<rect width="366.894" height="267.935" transform="matrix(0.732176 -0.681115 0.684885 0.728651 117.29 1040.53)" fill="#09B3AD"/>
<rect width="366.894" height="267.935" transform="matrix(0.732176 -0.681115 0.684885 0.728651 117.29 1040.53)" fill="black" fill-opacity="0.2"/>
<rect width="366.894" height="267.935" transform="matrix(0.732176 -0.681115 0.684885 0.728651 117.29 1040.53)" stroke="white" stroke-width="40"/>
<rect width="366.894" height="267.935" transform="matrix(0.732176 -0.681115 0.684885 0.728651 753.259 464.513)" fill="#09B3AD"/>
<rect width="366.894" height="267.935" transform="matrix(0.732176 -0.681115 0.684885 0.728651 753.259 464.513)" fill="black" fill-opacity="0.2"/>
<rect width="366.894" height="267.935" transform="matrix(0.732176 -0.681115 0.684885 0.728651 753.259 464.513)" stroke="white" stroke-width="40"/>
<rect x="346.482" y="819.477" width="79.4753" height="321.786" rx="27.5" transform="rotate(-42.842 346.482 819.477)" fill="#1C5F78" stroke="white" stroke-width="45"/>
<rect x="410.205" y="760.382" width="79.4753" height="321.786" rx="30.5" transform="rotate(-42.842 410.205 760.382)" fill="#1C5F78" stroke="white" stroke-width="45"/>
<rect x="473.927" y="701.287" width="79.4753" height="321.786" rx="30.5" transform="rotate(-42.842 473.927 701.287)" fill="#1C5F78" stroke="white" stroke-width="45"/>
<rect x="601.373" y="583.099" width="79.4753" height="321.786" rx="30.5" transform="rotate(-42.842 601.373 583.099)" fill="#1C5F78" stroke="white" stroke-width="45"/>
<rect x="-1.18572" y="31.7965" width="76.1871" height="654.387" rx="38.0936" transform="matrix(-0.680294 -0.732939 0.732993 -0.680237 329.708 891.973)" fill="#1C5F78" stroke="white" stroke-width="45" stroke-linejoin="round"/>
<rect x="-1.18569" y="31.7963" width="51.2803" height="679.641" rx="25.6402" transform="matrix(-0.680299 -0.732935 0.732996 -0.680233 298.936 877.269)" fill="#1C5F78" stroke="white" stroke-width="45"/>
<rect x="-1.18569" y="31.7963" width="51.0668" height="667.431" rx="25.5334" transform="matrix(-0.680299 -0.732935 0.732996 -0.680233 278.35 845.563)" fill="#1C5F78" stroke="white" stroke-width="45"/>
<rect x="665.095" y="524.004" width="79.4753" height="321.786" rx="30.5" transform="rotate(-42.842 665.095 524.004)" fill="#1C5F78" stroke="white" stroke-width="45"/>
<rect x="728.818" y="464.909" width="79.4753" height="321.786" rx="30.5" transform="rotate(-42.842 728.818 464.909)" fill="#1C5F78" stroke="white" stroke-width="45"/>
<rect x="484.907" y="532.162" width="25.1382" height="51.9785" transform="rotate(-42.842 484.907 532.162)" fill="#1C5F78"/>
<path d="M499.663 557.936C499.663 557.936 484.769 558.066 477.737 540.131L485.368 529.747L497.323 531.652L507.294 547.552L519.249 549.457C519.249 549.457 522.994 557.892 524.247 561.319C525.501 564.745 527.132 570.163 527.132 570.163C527.132 570.163 519.19 575.705 513.318 574.226C505.653 572.295 499.663 557.936 499.663 557.936Z" fill="#144E63"/>
<path d="M499.663 557.936C499.663 557.936 484.769 558.066 477.737 540.131L485.368 529.747L497.323 531.652L507.294 547.552M499.663 557.936L507.294 547.552M499.663 557.936C499.663 557.936 505.653 572.295 513.318 574.226C519.19 575.705 527.132 570.163 527.132 570.163C527.132 570.163 525.501 564.745 524.247 561.319C522.994 557.892 519.249 549.457 519.249 549.457L507.294 547.552" stroke="white" stroke-width="45"/>
<path d="M485.07 576.875C485.07 576.875 471.953 582.348 459.445 567.133L462.545 554.124L473.778 551.718L488.17 563.866L499.404 561.46C499.404 561.46 505.673 568.459 507.983 571.399C510.294 574.338 513.636 579.11 513.636 579.11C513.636 579.11 508.563 587.441 502.854 588.086C495.402 588.927 485.07 576.875 485.07 576.875Z" fill="#144E63"/>
<path d="M485.07 576.875C485.07 576.875 471.953 582.348 459.445 567.133L462.545 554.124L473.778 551.718L488.17 563.866M485.07 576.875L488.17 563.866M485.07 576.875C485.07 576.875 495.402 588.927 502.854 588.086C508.563 587.441 513.636 579.11 513.636 579.11C513.636 579.11 510.294 574.338 507.983 571.399C505.673 568.459 499.404 561.46 499.404 561.46L488.17 563.866" stroke="white" stroke-width="45"/>
<path d="M549.365 516.598C549.365 516.598 556.372 503.897 540.885 491.839L526.519 494.871L522.993 505.742L534.999 519.631L531.474 530.502C531.474 530.502 538.556 536.548 541.556 538.775C544.557 541.002 549.462 544.222 549.462 544.222C549.462 544.222 558.914 539.293 560.079 533.77C561.598 526.561 549.365 516.598 549.365 516.598Z" fill="#144E63"/>
<path d="M549.365 516.598C549.365 516.598 556.372 503.897 540.885 491.839L526.519 494.871L522.993 505.742L534.999 519.631M549.365 516.598L534.999 519.631M549.365 516.598C549.365 516.598 561.598 526.561 560.079 533.77C558.914 539.293 549.462 544.222 549.462 544.222C549.462 544.222 544.557 541.002 541.556 538.775C538.556 536.548 531.474 530.502 531.474 530.502L534.999 519.631" stroke="white" stroke-width="45"/>
<path d="M525.895 530.158C525.895 530.158 524.121 515.265 506.372 509.613L497.585 518.034L500.897 529.834L517.108 538.579L520.42 550.379C520.42 550.379 528.824 553.474 532.203 554.464C535.583 555.454 540.882 556.669 540.882 556.669C540.882 556.669 545.079 548.309 542.941 542.554C540.151 535.043 525.895 530.158 525.895 530.158Z" fill="#144E63"/>
<path d="M525.895 530.158C525.895 530.158 524.121 515.265 506.372 509.613L497.585 518.034L500.897 529.834L517.108 538.579M525.895 530.158L517.108 538.579M525.895 530.158C525.895 530.158 540.151 535.043 542.941 542.554C545.079 548.309 540.882 556.669 540.882 556.669C540.882 556.669 535.583 555.454 532.203 554.464C528.824 553.474 520.42 550.379 520.42 550.379L517.108 538.579" stroke="white" stroke-width="45"/>
<path d="M467.444 517.006C467.444 517.006 474.079 517.523 481.807 513.402L481.041 510.633L475.202 510.705L466.678 514.237L460.839 514.309C460.839 514.309 457.009 516.233 455.572 517.024C454.136 517.814 454.053 518.433 454.053 518.433C454.053 518.433 454.163 520.679 457.17 520.512C461.095 520.294 467.444 517.006 467.444 517.006Z" fill="#144E63"/>
<path d="M467.444 517.006C467.444 517.006 474.079 517.523 481.807 513.402L481.041 510.633L475.202 510.705L466.678 514.237M467.444 517.006L466.678 514.237M467.444 517.006C467.444 517.006 461.095 520.294 457.17 520.512C454.163 520.679 454.053 518.433 454.053 518.433C454.053 518.433 454.136 517.814 455.572 517.024C457.009 516.233 460.839 514.309 460.839 514.309L466.678 514.237" stroke="white" stroke-width="45"/>
<path d="M489.229 496.572C489.229 496.572 490.929 502.305 489.019 510.943L486.593 511.405L485.531 506.141L486.802 497.034L485.741 491.77C485.741 491.77 486.589 487.538 486.964 485.922C487.339 484.307 487.832 483.976 487.832 483.976C487.832 483.976 489.703 483.143 490.143 485.907C490.717 489.516 489.229 496.572 489.229 496.572Z" fill="#144E63"/>
<path d="M489.229 496.572C489.229 496.572 490.929 502.305 489.019 510.943L486.593 511.405L485.531 506.141L486.802 497.034M489.229 496.572L486.802 497.034M489.229 496.572C489.229 496.572 490.717 489.516 490.143 485.907C489.703 483.143 487.832 483.976 487.832 483.976C487.832 483.976 487.339 484.307 486.964 485.922C486.589 487.538 485.741 491.77 485.741 491.77L486.802 497.034" stroke="white" stroke-width="45"/>
<path d="M484.754 514.289C484.754 514.289 481.723 508.194 474.187 503.139L472.24 505.013L475.354 510.148L482.806 516.163L485.92 521.299C485.92 521.299 489.555 523.856 490.976 524.785C492.398 525.714 494.572 527.039 494.572 527.039C494.572 527.039 494.813 524.451 493.099 521.863C490.861 518.484 484.754 514.289 484.754 514.289Z" fill="#144E63"/>
<path d="M484.754 514.289C484.754 514.289 481.723 508.194 474.187 503.139L472.24 505.013L475.354 510.148L482.806 516.163M484.754 514.289L482.806 516.163M484.754 514.289C484.754 514.289 490.861 518.484 493.099 521.863C494.813 524.451 494.572 527.039 494.572 527.039C494.572 527.039 492.398 525.714 490.976 524.785C489.555 523.856 485.92 521.299 485.92 521.299L482.806 516.163" stroke="white" stroke-width="45"/>
<rect x="378.279" y="820.675" width="34.4753" height="276.786" rx="8" transform="rotate(-42.842 378.279 820.675)" fill="#1C5F78"/>
<rect x="442.002" y="761.58" width="34.4753" height="276.786" rx="8" transform="rotate(-42.842 442.002 761.58)" fill="#1C5F78"/>
<rect x="505.725" y="702.485" width="34.4753" height="276.786" rx="8" transform="rotate(-42.842 505.725 702.485)" fill="#1C5F78"/>
<rect x="633.17" y="584.297" width="34.4753" height="276.786" rx="8" transform="rotate(-42.842 633.17 584.297)" fill="#1C5F78"/>
<rect width="31.1871" height="609.387" rx="8" transform="matrix(-0.680294 -0.732939 0.732993 -0.680237 355.007 839.415)" fill="#1C5F78"/>
<rect width="6.2803" height="634.641" rx="3.14015" transform="matrix(-0.680307 -0.732927 0.733002 -0.680226 324.235 824.713)" fill="#1C5F78"/>
<rect width="30.1267" height="597.663" rx="8" transform="matrix(-0.680299 -0.732935 0.732996 -0.680233 333.508 807.083)" fill="#1C5F78"/>
<rect width="6.06675" height="622.431" rx="3.03338" transform="matrix(-0.680299 -0.732935 0.732996 -0.680233 303.646 793.006)" fill="#1C5F78"/>
<rect width="49.0275" height="207.534" rx="8" transform="matrix(-0.680299 -0.732935 0.732996 -0.680233 478.367 672.65)" fill="#144E63"/>
<rect x="696.893" y="525.202" width="34.4753" height="276.786" rx="8" transform="rotate(-42.842 696.893 525.202)" fill="#1C5F78"/>
<rect x="760.615" y="466.107" width="34.4753" height="276.786" rx="8" transform="rotate(-42.842 760.615 466.107)" fill="#1C5F78"/>
<rect x="484.906" y="532.161" width="25.1382" height="51.9785" transform="rotate(-42.842 484.906 532.161)" fill="#1C5F78"/>
<path d="M499.662 557.935C499.662 557.935 484.768 558.065 477.736 540.13L485.367 529.746L497.322 531.651L507.293 547.551L519.248 549.456C519.248 549.456 522.993 557.891 524.246 561.318C525.5 564.744 527.131 570.162 527.131 570.162C527.131 570.162 519.189 575.704 513.317 574.225C505.652 572.294 499.662 557.935 499.662 557.935Z" fill="#144E63"/>
<path d="M499.662 557.935C499.662 557.935 484.768 558.065 477.736 540.13L485.367 529.746L497.322 531.651L507.293 547.551M499.662 557.935L507.293 547.551M499.662 557.935C499.662 557.935 505.652 572.294 513.317 574.225C519.189 575.704 527.131 570.162 527.131 570.162C527.131 570.162 525.5 564.744 524.246 561.318C522.993 557.891 519.248 549.456 519.248 549.456L507.293 547.551" stroke="#144E63"/>
<path d="M487.2 576.76C487.2 576.76 472.502 582.531 459.994 567.316L459.102 563.713L459.399 560.337C459.399 560.337 460.386 558.469 461.316 557.219C460.13 558.272 462.341 555.951 461.58 556.879C461.493 556.985 461.405 557.099 461.316 557.219C461.782 556.805 462.772 555.869 464.675 554.009C471.417 547.418 471.522 552.543 475.908 551.603L490.3 563.751L501.534 561.345C501.534 561.345 507.803 568.344 510.113 571.283C512.424 574.222 515.766 578.995 515.766 578.995C515.766 578.995 510.693 587.326 504.984 587.971C497.532 588.812 487.2 576.76 487.2 576.76Z" fill="#144E63"/>
<path d="M487.2 576.76C487.2 576.76 472.502 582.531 459.994 567.316C459.645 565.909 459.102 563.713 459.102 563.713C459.102 563.713 459.283 561.655 459.399 560.337C459.399 560.337 460.583 558.095 461.58 556.879C462.641 555.586 457.933 560.6 464.675 554.009C471.417 547.418 471.522 552.543 475.908 551.603L490.3 563.751M487.2 576.76L490.3 563.751M487.2 576.76C487.2 576.76 497.532 588.812 504.984 587.971C510.693 587.326 515.766 578.995 515.766 578.995C515.766 578.995 512.424 574.222 510.113 571.283C507.803 568.344 501.534 561.345 501.534 561.345L490.3 563.751" stroke="#144E63"/>
<path d="M545.638 516.003C545.638 516.003 550.575 497.282 536.722 488.374L533.476 488.617L530.452 490.134C530.452 490.134 528.793 491.907 527.687 493.401C528.612 491.686 526.566 495.009 527.387 493.82C527.48 493.684 527.581 493.544 527.687 493.401C527.323 494.075 526.5 495.528 524.863 498.34C519.061 508.304 523.66 506.634 522.889 511.948L534.02 524.067L532.046 537.676C532.046 537.676 538.427 542.36 541.101 543.96C543.775 545.56 548.111 547.694 548.111 547.694C548.111 547.694 555.5 539.019 555.985 532.305C556.617 523.541 545.638 516.003 545.638 516.003Z" fill="#144E63"/>
<path d="M545.638 516.003C545.638 516.003 550.575 497.282 536.722 488.374C535.455 488.469 533.476 488.617 533.476 488.617C533.476 488.617 531.633 489.541 530.452 490.134C530.452 490.134 528.46 492.263 527.387 493.82C526.244 495.477 530.664 488.375 524.863 498.34C519.061 508.304 523.66 506.634 522.889 511.948L534.02 524.067M545.638 516.003L534.02 524.067M545.638 516.003C545.638 516.003 556.617 523.541 555.985 532.305C555.5 539.019 548.111 547.694 548.111 547.694C548.111 547.694 543.775 545.56 541.101 543.96C538.427 542.36 532.046 537.676 532.046 537.676L534.02 524.067" stroke="#144E63"/>
<path d="M525.895 530.157C525.895 530.157 524.121 515.264 506.372 509.612L497.585 518.033L500.897 529.833L517.108 538.578L520.42 550.378C520.42 550.378 528.824 553.473 532.203 554.463C535.583 555.453 540.882 556.668 540.882 556.668C540.882 556.668 545.079 548.308 542.941 542.553C540.151 535.042 525.895 530.157 525.895 530.157Z" fill="#144E63"/>
<path d="M525.895 530.157C525.895 530.157 524.121 515.264 506.372 509.612L497.585 518.033L500.897 529.833L517.108 538.578M525.895 530.157L517.108 538.578M525.895 530.157C525.895 530.157 540.151 535.042 542.941 542.553C545.079 548.308 540.882 556.668 540.882 556.668C540.882 556.668 535.583 555.453 532.203 554.463C528.824 553.473 520.42 550.378 520.42 550.378L517.108 538.578" stroke="#144E63"/>
<path d="M483.875 494.886C483.875 494.886 480.396 500.568 480.409 509.558L483.14 510.263L485.748 504.998L486.607 495.59L489.215 490.325C489.215 490.325 489.311 485.929 489.287 484.246C489.264 482.563 489.146 480.037 489.146 480.037C489.146 480.037 486.787 481.148 485.556 483.925C483.949 487.55 483.875 494.886 483.875 494.886Z" fill="#144E63"/>
<path d="M483.875 494.886C483.875 494.886 480.396 500.568 480.409 509.558L483.14 510.263L485.748 504.998L486.607 495.59M483.875 494.886L486.607 495.59M483.875 494.886C483.875 494.886 483.949 487.55 485.556 483.925C486.787 481.148 489.146 480.037 489.146 480.037C489.146 480.037 489.264 482.563 489.287 484.246C489.311 485.929 489.215 490.325 489.215 490.325L486.607 495.59" stroke="#144E63"/>
<path d="M467.444 517.006C467.444 517.006 474.079 517.523 481.807 513.402L481.041 510.633L475.202 510.705L466.678 514.237L460.839 514.309C460.839 514.309 457.009 516.233 455.572 517.024C454.136 517.814 452.023 519.075 452.023 519.075C452.023 519.075 454.163 520.679 457.17 520.512C461.095 520.294 467.444 517.006 467.444 517.006Z" fill="#144E63"/>
<path d="M467.444 517.006C467.444 517.006 474.079 517.523 481.807 513.402L481.041 510.633L475.202 510.705L466.678 514.237M467.444 517.006L466.678 514.237M467.444 517.006C467.444 517.006 461.095 520.294 457.17 520.512C454.163 520.679 452.023 519.075 452.023 519.075C452.023 519.075 454.136 517.814 455.572 517.024C457.009 516.233 460.839 514.309 460.839 514.309L466.678 514.237" stroke="#144E63"/>
<path d="M485.709 514.468C485.709 514.468 482.678 508.373 475.142 503.317L473.195 505.192L476.309 510.327L483.761 516.342L486.876 521.477C486.876 521.477 490.51 524.034 491.931 524.963C493.353 525.893 495.527 527.217 495.527 527.217C495.527 527.217 495.768 524.63 494.054 522.042C491.817 518.663 485.709 514.468 485.709 514.468Z" fill="#144E63"/>
<path d="M485.709 514.468C485.709 514.468 482.678 508.373 475.142 503.317L473.195 505.192L476.309 510.327L483.761 516.342M485.709 514.468L483.761 516.342M485.709 514.468C485.709 514.468 491.817 518.663 494.054 522.042C495.768 524.63 495.527 527.217 495.527 527.217C495.527 527.217 493.353 525.893 491.931 524.963C490.51 524.034 486.876 521.477 486.876 521.477L483.761 516.342" stroke="#144E63"/>
</g>
</g>
<defs>
<clipPath id="clip0_613_76">
<rect width="2271.68" height="2060" fill="white"/>
</clipPath>
<clipPath id="clip1_613_76">
<rect width="1226" height="1326" fill="white" transform="translate(-32 1339) rotate(-90)"/>
</clipPath>
</defs>
</svg>
